<?xml version="1.0" encoding="UTF-8" standalone="no"?>
<!DOCTYPE svg PUBLIC "-//W3C//DTD SVG 1.1//EN" "http://www.w3.org/Graphics/SVG/1.1/DTD/svg11.dtd">
<svg width="100%" height="100%" viewBox="0 0 160 160" version="1.1" xmlns="http://www.w3.org/2000/svg" xmlns:xlink="http://www.w3.org/1999/xlink" xml:space="preserve" xmlns:serif="http://www.serif.com/" style="fill-rule:evenodd;clip-rule:evenodd;stroke-linejoin:round;stroke-miterlimit:2;">
    <g transform="matrix(1,0,0,1,0,-379.814)">
        <g id="Artboard1B" transform="matrix(1.06658,0,0,1.06658,0,202.572)">
            <rect x="0" y="166.178" width="150.012" height="150.012" style="fill:none;"/>
            <g transform="matrix(6.90176,0,0,6.90176,-148.402,52.6925)">
                <path d="M42.559,21.447L42.559,33.174C42.559,35.562 40.621,37.5 38.234,37.5L26.506,37.5C24.119,37.5 22.181,35.562 22.181,33.174L22.181,21.447C22.181,19.06 24.119,17.121 26.506,17.121L38.234,17.121C40.621,17.121 42.559,19.06 42.559,21.447ZM41.472,21.447C41.472,19.659 40.021,18.208 38.234,18.208L26.506,18.208C24.719,18.208 23.267,19.659 23.267,21.447L23.267,33.174C23.267,34.962 24.719,36.413 26.506,36.413L38.234,36.413C40.021,36.413 41.472,34.962 41.472,33.174L41.472,21.447Z" style="fill:rgb(144,144,144);"/>
            </g>
            <g transform="matrix(1.92588,0,0,1.92588,11.3921,167.803)">
                <circle cx="33.031" cy="38.103" r="6.006" style="fill:rgb(144,144,144);"/>
            </g>
        </g>
    </g>
</svg>
